<svg width="25" height="25" viewBox="0 0 25 25" fill="none" xmlns="http://www.w3.org/2000/svg">
<path d="M11.9998 -10.9999C25.255 -10.9999 36.0001 -0.254788 36.0001 12.9997C36.0001 26.2548 25.2549 37.0003 11.9998 37.0003C-1.25466 37.0003 -11.9999 26.2548 -11.9999 12.9997C-11.9999 -0.254801 -1.2547 -10.9999 11.9998 -10.9999Z" fill="black" fill-opacity="0.01" stroke="white" stroke-width="2"/>
<path d="M16.6636 4.15104H18.9458V0.176042C18.5521 0.121875 17.1979 0 15.6208 0C12.3302 0 10.0761 2.06979 10.0761 5.87396V9.375H6.44481V13.8187H10.0761V25H14.5281V13.8198H18.0125L18.5656 9.37604H14.5271V6.31458C14.5281 5.03021 14.874 4.15104 16.6636 4.15104Z" fill="white"/>
</svg>
